REM DIRINDEX 1\2\6,1\2\7,1\2\8,1\2\9,1\3\10,1\3\11,1\4\12,1\4\13,1\4\14,1\5\15,1\5\16,1\5\17
REM DIRNAME folder01,folder02,folder03,folder04,folder05,folder06,folder07,folder08,folder09,folder10,folder11,folder12,folder13,folder14,folder15,folder16,folder17
TITLE ""
FILE "1900_3_082 sec14_1350_1366.mp3" MP3
  TRACK 01 AUDIO
    TITLE "0:"
    INDEX 01 00:00:00
  TRACK 02 AUDIO
    TITLE "17:cjc020_8680"
    INDEX 01 00:00:11
  TRACK 03 AUDIO
    TITLE "0:"
    INDEX 01 00:01:24
  TRACK 04 AUDIO
    TITLE "16:cjc020_8681"
    INDEX 01 00:01:30
  TRACK 05 AUDIO
    TITLE "0:"
    INDEX 01 00:02:59
  TRACK 06 AUDIO
    TITLE "17:cjc020_8682"
    INDEX 01 00:03:45
  TRACK 07 AUDIO
    TITLE "0:"
    INDEX 01 00:04:44
  TRACK 08 AUDIO
    TITLE "16:cjc020_8683"
    INDEX 01 00:04:48
  TRACK 09 AUDIO
    TITLE "0:"
    INDEX 01 00:05:71
  TRACK 10 AUDIO
    TITLE "17:cjc020_8684"
    INDEX 01 00:06:53
  TRACK 11 AUDIO
    TITLE "0:"
    INDEX 01 00:07:68
  TRACK 12 AUDIO
    TITLE "16:cjc020_8685"
    INDEX 01 00:08:01
  TRACK 13 AUDIO
    TITLE "0:"
    INDEX 01 00:09:22
  TRACK 14 AUDIO
    TITLE "17:cjc020_8686"
    INDEX 01 00:10:08
  TRACK 15 AUDIO
    TITLE "0:"
    INDEX 01 00:11:15
  TRACK 16 AUDIO
    TITLE "16:cjc020_8687"
    INDEX 01 00:11:19
  TRACK 17 AUDIO
    TITLE "0:"
    INDEX 01 00:12:28
  TRACK 18 AUDIO
    TITLE "17:cjc020_8688"
    INDEX 01 00:13:14
  TRACK 19 AUDIO
    TITLE "0:"
    INDEX 01 00:14:29
  TRACK 20 AUDIO
    TITLE "16:cjc020_8689"
    INDEX 01 00:14:31
  TRACK 21 AUDIO
    TITLE "0:"
    INDEX 01 00:15:44
  TRACK 22 AUDIO
    TITLE "17:cjc020_8690"
    INDEX 01 00:16:26
  TRACK 23 AUDIO
    TITLE "0:"
    INDEX 01 00:17:53
  TRACK 24 AUDIO
    TITLE "16:cjc020_8691"
    INDEX 01 00:17:61
  TRACK 25 AUDIO
    TITLE "0:"
    INDEX 01 00:19:11
  TRACK 26 AUDIO
    TITLE "17:cjc020_8692"
    INDEX 01 00:19:71
  TRACK 27 AUDIO
    TITLE "0:"
    INDEX 01 00:21:72
  TRACK 28 AUDIO
    TITLE "16:cjc020_8693"
    INDEX 01 00:22:03
  TRACK 29 AUDIO
    TITLE "0:"
    INDEX 01 00:23:22
  TRACK 30 AUDIO
    TITLE "17:cjc020_8694"
    INDEX 01 00:24:06
  TRACK 31 AUDIO
    TITLE "0:"
    INDEX 01 00:25:23
  TRACK 32 AUDIO
    TITLE "16:cjc020_8695"
    INDEX 01 00:25:25
  TRACK 33 AUDIO
    TITLE "0:"
    INDEX 01 00:26:48
  TRACK 34 AUDIO
    TITLE "17:cjc020_8696"
    INDEX 01 00:27:30
  TRACK 35 AUDIO
    TITLE "0:"
    INDEX 01 00:29:40
  TRACK 36 AUDIO
    TITLE "16:cjc020_8697"
    INDEX 01 00:29:44
  TRACK 37 AUDIO
    TITLE "0:"
    INDEX 01 00:30:67
  TRACK 38 AUDIO
    TITLE "17:cjc020_8698"
    INDEX 01 00:31:53
  TRACK 39 AUDIO
    TITLE "0:"
    INDEX 01 00:32:58
  TRACK 40 AUDIO
    TITLE "16:cjc020_8699"
    INDEX 01 00:32:62
  TRACK 41 AUDIO
    TITLE "0:"
    INDEX 01 00:33:66
  TRACK 42 AUDIO
    TITLE "17:cjc020_8700"
    INDEX 01 00:34:53
  TRACK 43 AUDIO
    TITLE "0:"
    INDEX 01 00:36:05
  TRACK 44 AUDIO
    TITLE "16:cjc020_8701"
    INDEX 01 00:36:13
  TRACK 45 AUDIO
    TITLE "0:"
    INDEX 01 00:37:38
  TRACK 46 AUDIO
    TITLE "17:cjc020_8702"
    INDEX 01 00:38:22
  TRACK 47 AUDIO
    TITLE "0:"
    INDEX 01 00:39:54
  TRACK 48 AUDIO
    TITLE "16:cjc020_8703"
    INDEX 01 00:39:58
  TRACK 49 AUDIO
    TITLE "0:"
    INDEX 01 00:41:06
  TRACK 50 AUDIO
    TITLE "17:cjc020_8704"
    INDEX 01 00:41:67
  TRACK 51 AUDIO
    TITLE "0:"
    INDEX 01 00:42:55
  TRACK 52 AUDIO
    TITLE "16:cjc020_8705"
    INDEX 01 00:42:63
  TRACK 53 AUDIO
    TITLE "0:"
    INDEX 01 00:43:70
  TRACK 54 AUDIO
    TITLE "17:cjc020_8706"
    INDEX 01 00:44:60
  TRACK 55 AUDIO
    TITLE "0:"
    INDEX 01 00:46:02
  TRACK 56 AUDIO
    TITLE "16:cjc020_8707"
    INDEX 01 00:46:07
  TRACK 57 AUDIO
    TITLE "0:"
    INDEX 01 00:47:44
  TRACK 58 AUDIO
    TITLE "17:cjc020_8708"
    INDEX 01 00:48:30
  TRACK 59 AUDIO
    TITLE "0:"
    INDEX 01 00:49:55
  TRACK 60 AUDIO
    TITLE "16:cjc020_8709"
    INDEX 01 00:49:57
  TRACK 61 AUDIO
    TITLE "0:"
    INDEX 01 00:50:64
  TRACK 62 AUDIO
    TITLE "17:cjc020_8710"
    INDEX 01 00:51:48
  TRACK 63 AUDIO
    TITLE "0:"
    INDEX 01 00:52:67
  TRACK 64 AUDIO
    TITLE "16:cjc020_8711"
    INDEX 01 00:52:73
  TRACK 65 AUDIO
    TITLE "0:"
    INDEX 01 00:54:01
  TRACK 66 AUDIO
    TITLE "17:cjc020_8712"
    INDEX 01 00:54:58
  TRACK 67 AUDIO
    TITLE "0:"
    INDEX 01 00:55:71
  TRACK 68 AUDIO
    TITLE "16:cjc020_8713"
    INDEX 01 00:56:00
  TRACK 69 AUDIO
    TITLE "0:"
    INDEX 01 00:57:23
